# xmcd
#
# Track frame offsets:
#	150
#	23270
#	44215
#	65697
#	85322
#	110765
#	129897
#	146710
#	171650
#	195877
#	215852
#	238190
#	258572
#	278897
#
# Disc length: 4049 seconds
#
# Revision: 0
# Processed by: cddbd v1.5.1PL0 Copyright (c) Steve Scherf et al.
# Submitted via: EasyCDDAExtractor 8.1.4.1
#
DISCID=db0fcf0e
DTITLE=Various Artist - Tam Su Nang Buran
DYEAR=1992
DGENRE=
TTITLE0=Thanh Tuyen - Ba thang ta tu
TTITLE1=Giao Linh - Nguoi tinh khong den
TTITLE2=Thanh Phong - Dap vo cay dan
TTITLE3=Thanh Phong - Thanh Tuyen - Duong tinh doi nga
TTITLE4=Giao Linh - Nuoc cuon hoa troi
TTITLE5=Thanh Phong - Mai Ngoc Khanh - Loi ve xom nho
TTITLE6=Giao Linh - Tam su nang Buran
TTITLE7=Thanh phong - Can nha mau tim
TTITLE8=Thanh Tuyen - Gio cuon chieu hom
TTITLE9=Thanh Phong - Thanh Tuyen - Nguoi lu khach
TTITLE10=Giao Linh - Thanh Phong - Hai nam roi
TTITLE11=Giao Linh - Dem nho nguoi tinh
TTITLE12=Giao Linh - Dem nho nguoi tinh
TTITLE13=Thanh Phong - Can nha mau tim
EXTD=
EXTT0=
EXTT1=
EXTT2=
EXTT3=
EXTT4=
EXTT5=
EXTT6=
EXTT7=
EXTT8=
EXTT9=
EXTT10=
EXTT11=
EXTT12=
EXTT13=
PLAYORDER=
